<mxfile host="app.diagrams.net" modified="2023-09-12T18:17:59.862Z" agent="Mozilla/5.0 (Windows NT 10.0; Win64; x64) AppleWebKit/537.36 (KHTML, like Gecko) Chrome/116.0.0.0 Safari/537.36" etag="0lDdxfVGFRbwomlO15Rt" version="21.7.4" type="device">
  <diagram name="Página-1" id="G1xeHAZV7XJuKy4MlebQ">
    <mxGraphModel dx="880" dy="470" grid="1" gridSize="10" guides="1" tooltips="1" connect="1" arrows="1" fold="1" page="1" pageScale="1" pageWidth="827" pageHeight="1169" math="0" shadow="0">
      <root>
        <mxCell id="0" />
        <mxCell id="1" parent="0" />
        <mxCell id="_UTp695913LHMHBOA463-27" style="edgeStyle=orthogonalEdgeStyle;rounded=0;orthogonalLoop=1;jettySize=auto;html=1;entryX=1;entryY=0;entryDx=0;entryDy=0;" edge="1" parent="1" target="_UTp695913LHMHBOA463-16">
          <mxGeometry relative="1" as="geometry">
            <mxPoint x="700" y="45" as="sourcePoint" />
            <mxPoint x="474" y="30" as="targetPoint" />
          </mxGeometry>
        </mxCell>
        <mxCell id="_UTp695913LHMHBOA463-28" style="edgeStyle=orthogonalEdgeStyle;rounded=0;orthogonalLoop=1;jettySize=auto;html=1;" edge="1" parent="1" source="_UTp695913LHMHBOA463-11" target="_UTp695913LHMHBOA463-17">
          <mxGeometry relative="1" as="geometry">
            <Array as="points">
              <mxPoint x="414" y="110" />
            </Array>
          </mxGeometry>
        </mxCell>
        <mxCell id="_UTp695913LHMHBOA463-29" style="edgeStyle=orthogonalEdgeStyle;rounded=0;orthogonalLoop=1;jettySize=auto;html=1;entryX=0;entryY=0.625;entryDx=0;entryDy=0;entryPerimeter=0;" edge="1" parent="1" source="_UTp695913LHMHBOA463-11" target="_UTp695913LHMHBOA463-18">
          <mxGeometry relative="1" as="geometry">
            <mxPoint x="500" y="340" as="targetPoint" />
            <Array as="points">
              <mxPoint x="334" y="100" />
              <mxPoint x="334" y="280" />
            </Array>
          </mxGeometry>
        </mxCell>
        <mxCell id="_UTp695913LHMHBOA463-34" style="edgeStyle=orthogonalEdgeStyle;rounded=0;orthogonalLoop=1;jettySize=auto;html=1;" edge="1" parent="1" target="_UTp695913LHMHBOA463-13">
          <mxGeometry relative="1" as="geometry">
            <mxPoint x="730" y="140" as="sourcePoint" />
            <Array as="points">
              <mxPoint x="730" y="380" />
            </Array>
          </mxGeometry>
        </mxCell>
        <mxCell id="_UTp695913LHMHBOA463-37" style="edgeStyle=orthogonalEdgeStyle;rounded=0;orthogonalLoop=1;jettySize=auto;html=1;entryX=1.017;entryY=0.713;entryDx=0;entryDy=0;entryPerimeter=0;" edge="1" parent="1" target="_UTp695913LHMHBOA463-12">
          <mxGeometry relative="1" as="geometry">
            <mxPoint x="710" y="140" as="sourcePoint" />
            <Array as="points">
              <mxPoint x="710" y="180" />
              <mxPoint x="642" y="180" />
              <mxPoint x="642" y="217" />
            </Array>
          </mxGeometry>
        </mxCell>
        <mxCell id="_UTp695913LHMHBOA463-38" style="edgeStyle=orthogonalEdgeStyle;rounded=0;orthogonalLoop=1;jettySize=auto;html=1;entryX=0.5;entryY=0;entryDx=0;entryDy=0;" edge="1" parent="1">
          <mxGeometry relative="1" as="geometry">
            <mxPoint x="220" y="90" as="targetPoint" />
            <mxPoint x="700" y="80" as="sourcePoint" />
            <Array as="points">
              <mxPoint x="221" y="80" />
              <mxPoint x="221" y="70" />
            </Array>
          </mxGeometry>
        </mxCell>
        <mxCell id="_UTp695913LHMHBOA463-39" style="edgeStyle=orthogonalEdgeStyle;rounded=0;orthogonalLoop=1;jettySize=auto;html=1;entryX=0.333;entryY=1;entryDx=0;entryDy=0;entryPerimeter=0;" edge="1" parent="1" source="_UTp695913LHMHBOA463-11" target="_UTp695913LHMHBOA463-19">
          <mxGeometry relative="1" as="geometry">
            <mxPoint x="760" y="150" as="sourcePoint" />
            <Array as="points">
              <mxPoint x="760" y="440" />
              <mxPoint x="495" y="440" />
              <mxPoint x="495" y="360" />
              <mxPoint x="210" y="360" />
            </Array>
          </mxGeometry>
        </mxCell>
        <mxCell id="_UTp695913LHMHBOA463-11" value="BIbliotecario&lt;br&gt;" style="shape=umlActor;verticalLabelPosition=bottom;verticalAlign=top;html=1;outlineConnect=0;fillColor=#dae8fc;strokeColor=#6c8ebf;" vertex="1" parent="1">
          <mxGeometry x="700" y="30" width="60" height="90" as="geometry" />
        </mxCell>
        <mxCell id="_UTp695913LHMHBOA463-12" value="Livros emprestados" style="ellipse;whiteSpace=wrap;html=1;fillColor=#f8cecc;strokeColor=#b85450;" vertex="1" parent="1">
          <mxGeometry x="510" y="160" width="90" height="60" as="geometry" />
        </mxCell>
        <mxCell id="_UTp695913LHMHBOA463-13" value="Histórico&lt;br&gt;" style="ellipse;whiteSpace=wrap;html=1;fillColor=#f8cecc;strokeColor=#b85450;" vertex="1" parent="1">
          <mxGeometry x="530" y="250" width="90" height="70" as="geometry" />
        </mxCell>
        <mxCell id="_UTp695913LHMHBOA463-36" style="edgeStyle=orthogonalEdgeStyle;rounded=0;orthogonalLoop=1;jettySize=auto;html=1;entryX=0;entryY=0.5;entryDx=0;entryDy=0;exitX=0.5;exitY=0.5;exitDx=0;exitDy=0;exitPerimeter=0;" edge="1" parent="1" source="_UTp695913LHMHBOA463-14" target="_UTp695913LHMHBOA463-20">
          <mxGeometry relative="1" as="geometry" />
        </mxCell>
        <mxCell id="_UTp695913LHMHBOA463-41" style="edgeStyle=orthogonalEdgeStyle;rounded=0;orthogonalLoop=1;jettySize=auto;html=1;entryX=0;entryY=0.75;entryDx=0;entryDy=0;entryPerimeter=0;" edge="1" parent="1" source="_UTp695913LHMHBOA463-14" target="_UTp695913LHMHBOA463-19">
          <mxGeometry relative="1" as="geometry">
            <Array as="points">
              <mxPoint x="65" y="210" />
              <mxPoint x="130" y="210" />
              <mxPoint x="130" y="260" />
            </Array>
          </mxGeometry>
        </mxCell>
        <mxCell id="_UTp695913LHMHBOA463-14" value="Leitor&amp;nbsp;&lt;br&gt;" style="shape=umlActor;verticalLabelPosition=bottom;verticalAlign=top;html=1;outlineConnect=0;fillColor=#76608a;fontColor=#ffffff;strokeColor=#432D57;" vertex="1" parent="1">
          <mxGeometry x="40" y="70" width="50" height="80" as="geometry" />
        </mxCell>
        <mxCell id="_UTp695913LHMHBOA463-16" value="Registrar Leitor" style="ellipse;whiteSpace=wrap;html=1;fillColor=#f8cecc;strokeColor=#b85450;" vertex="1" parent="1">
          <mxGeometry x="340" width="100" height="60" as="geometry" />
        </mxCell>
        <mxCell id="_UTp695913LHMHBOA463-17" value="&#xa;&lt;span style=&quot;color: rgb(0, 0, 0); font-family: Helvetica; font-size: 12px; font-style: normal; font-variant-ligatures: normal; font-variant-caps: normal; font-weight: 400; letter-spacing: normal; orphans: 2; text-align: center; text-indent: 0px; text-transform: none; widows: 2; word-spacing: 0px; -webkit-text-stroke-width: 0px; background-color: rgb(251, 251, 251); text-decoration-thickness: initial; text-decoration-style: initial; text-decoration-color: initial; float: none; display: inline !important;&quot;&gt;Leitores Registrados&amp;nbsp;&lt;/span&gt;&#xa;&#xa;" style="ellipse;whiteSpace=wrap;html=1;fillColor=#f8cecc;strokeColor=#b85450;" vertex="1" parent="1">
          <mxGeometry x="356" y="140" width="104" height="60" as="geometry" />
        </mxCell>
        <mxCell id="_UTp695913LHMHBOA463-18" value="Livros disponivéis" style="ellipse;whiteSpace=wrap;html=1;fillColor=#f8cecc;strokeColor=#b85450;" vertex="1" parent="1">
          <mxGeometry x="354" y="230" width="106" height="70" as="geometry" />
        </mxCell>
        <mxCell id="_UTp695913LHMHBOA463-19" value="Emprestimo&amp;nbsp;" style="ellipse;whiteSpace=wrap;html=1;fillColor=#dae8fc;strokeColor=#6c8ebf;" vertex="1" parent="1">
          <mxGeometry x="170" y="200" width="120" height="80" as="geometry" />
        </mxCell>
        <mxCell id="_UTp695913LHMHBOA463-20" value="Devolução&lt;br&gt;" style="ellipse;whiteSpace=wrap;html=1;fillColor=#dae8fc;strokeColor=#6c8ebf;" vertex="1" parent="1">
          <mxGeometry x="170" y="90" width="100" height="60" as="geometry" />
        </mxCell>
      </root>
    </mxGraphModel>
  </diagram>
</mxfile>
